Coordinates
version=1
nRows=12
nColumns=24
inDegrees=yes

Units are S.I. units (second, meters, Newtons, ...)
Angles are in degrees.

endheader
time	pelvis_tilt	pelvis_list	pelvis_rotation	pelvis_tx	pelvis_ty	pelvis_tz	hip_flexion_r	hip_adduction_r	hip_rotation_r	knee_angle_r	ankle_angle_r	subtalar_angle_r	mtp_angle_r	hip_flexion_l	hip_adduction_l	hip_rotation_l	knee_angle_l	ankle_angle_l	subtalar_angle_l	mtp_angle_l	lumbar_extension	lumbar_bending	lumbar_rotation
      1.32100000	      0.28239291	      8.33073384	     -0.16418007	      0.35454272	      0.99505581	      0.28164085	     18.53080159	     -9.07526372	      1.66403497	    -70.01388503	     -1.34093674	     -8.58223221	      4.36160907	      8.26977738	     13.61692579	     -0.36121802	    -10.25748442	      2.07717447	     -7.76604520	      0.93758764	     -0.03547397	     -6.48889837	      2.75339769
      1.32516667	      0.35111186	      8.23534474	     -0.06566197	      0.35947996	      0.99578295	      0.28143805	     19.00984254	     -8.93684463	      1.72724792	    -69.73264254	     -0.55605930	     -8.92997823	      4.30829530	      7.70969904	     13.54642014	     -0.12983908	     -9.98615960	      2.16229721	     -7.76806750	      0.93058650	     -0.15617534	     -6.38570664	      2.64136218
      1.32933333	      0.44247688	      8.16069577	      0.02404408	      0.36442549	      0.99648769	      0.28124255	     19.45568597	     -8.82608796	      1.78901736	    -69.40463934	      0.15491928	     -9.34862065	      4.17110857	      7.10090831	     13.50340349	      0.16784620	     -9.66224398	      2.20519149	     -7.90469039	      0.90559245	     -0.29554608	     -6.32365520	      2.44583083
      1.33350000	      0.51707141	      8.04460149	      0.14346161	      0.36935425	      0.99718066	      0.28100625	     19.88823775	     -8.68277885	      1.80490043	    -68.99978081	      0.86282317	     -9.65562034	      3.95707381	      6.52229724	     13.41557411	      0.48103070	     -9.36507416	      2.21895233	     -8.02931589	      0.86119198	     -0.41916801	     -6.18075582	      2.29003397
      1.33766667	      0.52953977	      7.93743535	      0.25456964	      0.37424236	      0.99769891	      0.28080554	     20.39326601	     -8.54245512	      1.84342131	    -68.57038537	      1.59507328	     -9.88338796	      3.90347492	      6.05767242	     13.32557956	      0.69892157	     -9.15436383	      2.34343498	     -8.02669099	      0.85037949	     -0.47078360	     -6.06580549	      2.23369710
      1.34183333	      0.62380938	      7.84522084	      0.35411457	      0.37915714	      0.99832117	      0.28061109	     20.78828588	     -8.42559614	      1.87129343	    -68.07766651	      2.23169703	    -10.25764107	      3.72330746	      5.45663850	     13.25846785	      1.01907031	     -8.84454204	      2.37044506	     -8.20144518	      0.80494104	     -0.62268830	     -5.97204313	      2.04532206
      1.34600000	      0.67223385	      7.74050669	      0.46834905	      0.38402748	      0.99882352	      0.28040376	     21.22176746	     -8.29653873	      1.89475324	    -67.54202444	      2.89458769	    -10.52946350	      3.55577783	      4.93497529	     13.17428630	      1.32020599	     -8.59039125	      2.43809833	     -8.33138627	      0.75991223	     -0.72742411	     -5.85507624	      1.91331858
      1.35016667	      0.71083275	      7.64344521	      0.58088381	      0.38889440	      0.99927397	      0.28021297	     21.65343464	     -8.17833015	      1.91439404	    -66.95825693	      3.51312246	    -10.77767562	      3.40420535	      4.43163346	     13.09521573	      1.61405957	     -8.34868754	      2.50548379	     -8.45999266	      0.71591629	     -0.81971885	     -5.75165865	      1.79050690
      1.35433333	      0.75775515	      7.52427757	      0.71103251	      0.39378171	      0.99972685	      0.27999106	     22.04323481	     -8.04922806	      1.89867943	    -66.30019937	      4.05600264	    -11.01405129	      3.10961297	      3.90121111	     12.99414465	      1.96896122	     -8.07156339	      2.48695793	     -8.68623077	      0.62340029	     -0.91164053	     -5.61590101	      1.62304958
      1.35850000	      0.81597733	      7.41429868	      0.82541782	      0.39866077	      1.00014647	      0.27980875	     22.41210864	     -7.92566564	      1.89524277	    -65.60123137	      4.59440876	    -11.22068768	      2.74021130	      3.37419305	     12.89659683	      2.28072136	     -7.82199711	      2.54413682	     -8.86058749	      0.50421625	     -1.01930783	     -5.49072957	      1.48717882
      1.36266667	      0.84787454	      7.33267874	      0.92793008	      0.40350879	      1.00044477	      0.27965276	     22.81413558	     -7.82843526	      1.91684872	    -64.88762667	      5.14993034	    -11.43962233	      2.57131634	      2.90319168	     12.82284392	      2.52719350	     -7.62056481	      2.68394768	     -8.94210877	      0.44938889	     -1.10257360	     -5.41163361	      1.39514845
      1.36683333	      0.88329078	      7.24509856	      1.04084232	      0.40837302	      1.00072737	      0.27947923	     23.18522408	     -7.73453694	      1.91573023	    -64.11092109	      5.62770566	    -11.62092741	      2.37937745	      2.41593416	     12.74398620	      2.83127280	     -7.39577465	      2.75738216	     -9.11377479	      0.38190113	     -1.18865523	     -5.31252475	      1.26315180
